<svg width="49" height="50" viewBox="0 0 49 50" fill="none" xmlns="http://www.w3.org/2000/svg">
<path d="M23.9951 0H24.9899C30.4217 0 35.6641 2.12283 40.7169 6.3685C46.0856 11.9592 48.7699 17.8253 48.7699 23.9669V26.3491C48.7699 29.9141 47.4278 34.1031 44.7434 38.9159C41.4275 43.7773 36.9115 47.1317 31.1954 48.9791C28.5427 49.6597 26.3321 50 24.5636 50H24.4214C17.8054 50 11.8919 47.3424 6.68117 42.0272C2.25991 36.8417 0.0492859 31.17 0.0492859 25.0122C0.0492859 18.433 2.55203 12.4129 7.55752 6.95187C12.7683 2.31729 18.2475 0 23.9951 0ZM25.4399 20.7098V21.9008C25.4399 22.0953 25.3373 22.1925 25.132 22.1925C22.1161 21.7712 19.5265 20.6855 17.3632 18.9353L15.35 17.0151H15.1842C15.1842 17.1771 14.9947 17.5741 14.6157 18.2061V19.9806C14.7421 20.9853 15.4131 22.1196 16.629 23.3836V23.5294C15.9658 23.5294 15.2947 23.335 14.6157 22.946V23.0919C14.6157 24.9878 15.8158 26.6164 18.2159 27.9776L17.9317 28.1235H17.2211L16.4869 27.9776V28.2693C17.5922 30.3435 18.9896 31.3807 20.6792 31.3807V31.8182C18.7843 33.0011 16.9053 33.5926 15.0421 33.5926H14.1894V33.8843C16.9053 35.1645 19.2581 35.8046 21.2476 35.8046C25.4162 35.8046 28.969 34.0788 31.906 30.6271C34.0219 27.613 35.0798 24.7529 35.0798 22.0467V21.0258C36.6115 19.5187 37.3852 18.6761 37.401 18.4978V18.352C36.8483 18.6437 36.0746 18.8948 35.0798 19.1055L34.9377 18.7895C35.8378 18.2547 36.5088 17.5174 36.951 16.5775V16.4317H36.8088C35.3877 17.1285 34.5272 17.4769 34.2272 17.4769H33.8008C32.7429 16.5856 31.7797 16.0914 30.9112 15.9942H29.7506C28.14 15.9942 26.8452 16.9259 25.8662 18.7895C25.582 19.2756 25.4399 19.9157 25.4399 20.7098Z" fill="#F55529"/>
</svg>
